<svg id="SvgjsSvg1001" width="288" height="288" xmlns="http://www.w3.org/2000/svg" version="1.1" xmlns:xlink="http://www.w3.org/1999/xlink" xmlns:svgjs="http://svgjs.com/svgjs"><rect id="SvgjsRect1018" width="288" height="288" rx="20" ry="20" transform="matrix(0.7916,0,0,0.7916,30.009600000000006,30.009600000000006)" fill="#2d31fa"></rect><defs id="SvgjsDefs1002"></defs><g id="SvgjsG1008" transform="matrix(0.4652,0,0,0.4652,77.01140126515432,77.0112)"><svg xmlns="http://www.w3.org/2000/svg" enable-background="new 0 0 330 330" viewBox="0 0 330 330" width="288" height="288"><path d="M325.607,79.393c-5.857-5.857-15.355-5.858-21.213,0.001l-139.39,139.393L25.607,79.393
	c-5.857-5.857-15.355-5.858-21.213,0.001c-5.858,5.858-5.858,15.355,0,21.213l150.004,150c2.813,2.813,6.628,4.393,10.606,4.393
	s7.794-1.581,10.606-4.394l149.996-150C331.465,94.749,331.465,85.251,325.607,79.393z" fill="#ffffff" class="color000 svgShape"></path></svg></g></svg>